<svg xmlns="http://www.w3.org/2000/svg" width="1600" height="900" viewBox="0 0 1600 900" role="img">
<rect width="1600" height="900" fill="#f2eee6"/>
<defs><pattern id="grid" width="80" height="80" patternUnits="userSpaceOnUse"><path d="M80 0H0V80" fill="none" stroke="#ded7ca" stroke-width="1"/></pattern></defs>
<rect x="40" y="40" width="1520" height="820" fill="url(#grid)" opacity=".46"/>
<rect x="40" y="40" width="1520" height="820" rx="0" fill="none" stroke="#171716" stroke-width="2"/>
<text x="78" y="96" fill="#c84a31" text-anchor="start" font-family="monospace" font-size="15" font-weight="500" letter-spacing="2">VANSMITHLAB / ANALYSIS / 02</text>
<text x="78" y="170" fill="#171716" text-anchor="start" font-family="Georgia" font-size="48" font-weight="500" letter-spacing="0">DOOM: ??? ?????? ? ?????</text>
<line x1="78" y1="202" x2="1522" y2="202" stroke="#171716" stroke-width="2"/>
<text x="78" y="824" fill="#777167" text-anchor="start" font-family="Arial" font-size="19" font-weight="400" letter-spacing="0">????????, ?????, ?????????? ? ???? ??? ????????? ??????</text>
<rect x="90" y="250" width="1050" height="460" rx="0" fill="#171716" stroke="#171716" stroke-width="2"/>
<text x="150" y="330" fill="#f2eee6" text-anchor="start" font-family="monospace" font-size="18" font-weight="700" letter-spacing="0">????????????</text>
<circle cx="300" cy="430" r="55" fill="none" stroke="#f2eee6" stroke-width="4"/>
<line x1="230" y1="560" x2="370" y2="560" stroke="#f2eee6" stroke-width="5"/>
<rect x="1190" y="250" width="320" height="460" rx="0" fill="#fbf8f1" stroke="#171716" stroke-width="2"/>
<text x="1350" y="300" fill="#171716" text-anchor="middle" font-family="monospace" font-size="15" font-weight="700" letter-spacing="0">?????? ?????????</text>
<text x="1220" y="340" fill="#171716" text-anchor="start" font-family="monospace" font-size="15" font-weight="700" letter-spacing="0">HP</text>
<rect x="1290" y="324" width="127.60000000000001" height="24" rx="0" fill="#c84a31" stroke="none" stroke-width="2"/>
<text x="1220" y="418" fill="#171716" text-anchor="start" font-family="monospace" font-size="15" font-weight="700" letter-spacing="0">ARMOR</text>
<rect x="1290" y="402" width="88.0" height="24" rx="0" fill="#284e78" stroke="none" stroke-width="2"/>
<text x="1220" y="496" fill="#171716" text-anchor="start" font-family="monospace" font-size="15" font-weight="700" letter-spacing="0">AMMO</text>
<rect x="1290" y="480" width="101.2" height="24" rx="0" fill="#171716" stroke="none" stroke-width="2"/>
<text x="1220" y="574" fill="#171716" text-anchor="start" font-family="monospace" font-size="15" font-weight="700" letter-spacing="0">KEYS</text>
<rect x="1290" y="558" width="66.0" height="24" rx="0" fill="#c84a31" stroke="none" stroke-width="2"/>
<text x="1350" y="690" fill="#171716" text-anchor="middle" font-family="monospace" font-size="15" font-weight="700" letter-spacing="0">?????????</text>
</svg>