<svg xmlns="http://www.w3.org/2000/svg" width="1600" height="900" viewBox="0 0 1600 900" role="img">
<rect width="1600" height="900" fill="#f2eee6"/>
<defs><pattern id="grid" width="80" height="80" patternUnits="userSpaceOnUse"><path d="M80 0H0V80" fill="none" stroke="#ded7ca" stroke-width="1"/></pattern></defs>
<rect x="40" y="40" width="1520" height="820" fill="url(#grid)" opacity=".46"/>
<rect x="40" y="40" width="1520" height="820" rx="0" fill="none" stroke="#171716" stroke-width="2"/>
<text x="78" y="96" fill="#c84a31" text-anchor="start" font-family="monospace" font-size="15" font-weight="500" letter-spacing="2">VANSMITHLAB / ANALYSIS / 05</text>
<text x="78" y="170" fill="#171716" text-anchor="start" font-family="Georgia" font-size="48" font-weight="500" letter-spacing="0">DEAD SPACE: ????????? ? ????</text>
<line x1="78" y1="202" x2="1522" y2="202" stroke="#171716" stroke-width="2"/>
<text x="78" y="824" fill="#777167" text-anchor="start" font-family="Arial" font-size="19" font-weight="400" letter-spacing="0">?????? ?????? ?????: ???????? ??????????? ???? ?????????</text>
<circle cx="800" cy="420" r="130" fill="#171716" stroke="#171716" stroke-width="2"/>
<rect x="705" y="330" width="70" height="160" rx="0" fill="#f2eee6" stroke="#f2eee6" stroke-width="2"/>
<rect x="825" y="330" width="70" height="160" rx="0" fill="#f2eee6" stroke="#f2eee6" stroke-width="2"/>
<rect x="925" y="300" width="170" height="90" rx="0" fill="#dce5e9" stroke="#171716" stroke-width="2"/>
<text x="1010" y="355" fill="#171716" text-anchor="middle" font-family="monospace" font-size="15" font-weight="700" letter-spacing="0">??????</text>
<rect x="100" y="300" width="200" height="70" rx="0" fill="#fbf8f1" stroke="#171716" stroke-width="2"/>
<text x="200" y="345" fill="#171716" text-anchor="middle" font-family="monospace" font-size="15" font-weight="700" letter-spacing="0">??????</text>
<rect x="300" y="390" width="200" height="70" rx="0" fill="#fbf8f1" stroke="#171716" stroke-width="2"/>
<text x="400" y="435" fill="#171716" text-anchor="middle" font-family="monospace" font-size="15" font-weight="700" letter-spacing="0">??????????</text>
<rect x="500" y="480" width="200" height="70" rx="0" fill="#fbf8f1" stroke="#171716" stroke-width="2"/>
<text x="600" y="525" fill="#171716" text-anchor="middle" font-family="monospace" font-size="15" font-weight="700" letter-spacing="0">????????</text>
<line x1="300" y1="350" x2="705" y2="400" stroke="#c84a31" stroke-width="4"/>
</svg>